<mxfile host="65bd71144e">
    <diagram id="T9uuaTeBy4bPSP1g8a4x" name="Page-1">
        <mxGraphModel dx="776" dy="611" grid="1" gridSize="10" guides="1" tooltips="1" connect="1" arrows="1" fold="1" page="1" pageScale="1" pageWidth="827" pageHeight="1169" background="#FFFFFF" math="0" shadow="0">
            <root>
                <mxCell id="0"/>
                <mxCell id="1" parent="0"/>
                <mxCell id="349" value="" style="group" vertex="1" connectable="0" parent="1">
                    <mxGeometry x="120" y="80" width="440" height="120" as="geometry"/>
                </mxCell>
                <mxCell id="243" value="A, 0" style="ellipse;whiteSpace=wrap;html=1;" vertex="1" parent="349">
                    <mxGeometry y="40" width="40" height="40" as="geometry"/>
                </mxCell>
                <mxCell id="245" value="C, 20" style="ellipse;whiteSpace=wrap;html=1;" vertex="1" parent="349">
                    <mxGeometry x="80" width="40" height="40" as="geometry"/>
                </mxCell>
                <mxCell id="252" style="edgeStyle=none;html=1;exitX=1;exitY=0;exitDx=0;exitDy=0;entryX=0;entryY=0.5;entryDx=0;entryDy=0;endArrow=block;endFill=1;startSize=3;endSize=3;" edge="1" parent="349" source="243" target="245">
                    <mxGeometry relative="1" as="geometry"/>
                </mxCell>
                <mxCell id="246" value="B, 10" style="ellipse;whiteSpace=wrap;html=1;" vertex="1" parent="349">
                    <mxGeometry x="80" y="80" width="40" height="40" as="geometry"/>
                </mxCell>
                <mxCell id="253" style="edgeStyle=none;html=1;exitX=1;exitY=1;exitDx=0;exitDy=0;entryX=0;entryY=0.5;entryDx=0;entryDy=0;endArrow=block;endFill=1;startSize=3;endSize=3;" edge="1" parent="349" source="243" target="246">
                    <mxGeometry relative="1" as="geometry"/>
                </mxCell>
                <mxCell id="247" value="E, 20" style="ellipse;whiteSpace=wrap;html=1;" vertex="1" parent="349">
                    <mxGeometry x="160" width="40" height="40" as="geometry"/>
                </mxCell>
                <mxCell id="256" style="edgeStyle=none;html=1;exitX=1;exitY=0.5;exitDx=0;exitDy=0;entryX=0;entryY=0.5;entryDx=0;entryDy=0;endArrow=block;endFill=1;startSize=3;endSize=3;" edge="1" parent="349" source="245" target="247">
                    <mxGeometry relative="1" as="geometry"/>
                </mxCell>
                <mxCell id="255" style="edgeStyle=none;html=1;exitX=1;exitY=0;exitDx=0;exitDy=0;entryX=0;entryY=1;entryDx=0;entryDy=0;endArrow=block;endFill=1;startSize=3;endSize=3;" edge="1" parent="349" source="246" target="247">
                    <mxGeometry relative="1" as="geometry"/>
                </mxCell>
                <mxCell id="248" value="D, 30" style="ellipse;whiteSpace=wrap;html=1;" vertex="1" parent="349">
                    <mxGeometry x="240" y="80" width="40" height="40" as="geometry"/>
                </mxCell>
                <mxCell id="254" style="edgeStyle=none;html=1;exitX=1;exitY=1;exitDx=0;exitDy=0;entryX=0;entryY=0;entryDx=0;entryDy=0;endArrow=block;endFill=1;startSize=3;endSize=3;" edge="1" parent="349" source="245" target="248">
                    <mxGeometry relative="1" as="geometry"/>
                </mxCell>
                <mxCell id="257" style="edgeStyle=none;html=1;exitX=1;exitY=0.5;exitDx=0;exitDy=0;entryX=0;entryY=0.5;entryDx=0;entryDy=0;endArrow=block;endFill=1;startSize=3;endSize=3;" edge="1" parent="349" source="246" target="248">
                    <mxGeometry relative="1" as="geometry"/>
                </mxCell>
                <mxCell id="249" value="F, 40" style="ellipse;whiteSpace=wrap;html=1;" vertex="1" parent="349">
                    <mxGeometry x="240" width="40" height="40" as="geometry"/>
                </mxCell>
                <mxCell id="258" style="edgeStyle=none;html=1;exitX=1;exitY=0.5;exitDx=0;exitDy=0;entryX=0;entryY=0.5;entryDx=0;entryDy=0;endArrow=block;endFill=1;startSize=3;endSize=3;" edge="1" parent="349" source="247" target="249">
                    <mxGeometry relative="1" as="geometry"/>
                </mxCell>
                <mxCell id="261" style="edgeStyle=orthogonalEdgeStyle;html=1;exitX=0;exitY=0.5;exitDx=0;exitDy=0;entryX=0.5;entryY=1;entryDx=0;entryDy=0;endArrow=block;endFill=1;startSize=3;endSize=3;fillColor=#f8cecc;strokeColor=#b85450;rounded=0;" edge="1" parent="349" source="250" target="245">
                    <mxGeometry relative="1" as="geometry"/>
                </mxCell>
                <mxCell id="250" value="G, 20" style="ellipse;whiteSpace=wrap;html=1;" vertex="1" parent="349">
                    <mxGeometry x="320" y="40" width="40" height="40" as="geometry"/>
                </mxCell>
                <mxCell id="259" style="edgeStyle=none;html=1;exitX=1;exitY=0;exitDx=0;exitDy=0;entryX=0;entryY=1;entryDx=0;entryDy=0;endArrow=block;endFill=1;startSize=3;endSize=3;" edge="1" parent="349" source="248" target="250">
                    <mxGeometry relative="1" as="geometry"/>
                </mxCell>
                <mxCell id="260" style="edgeStyle=none;html=1;exitX=1;exitY=1;exitDx=0;exitDy=0;entryX=0;entryY=0;entryDx=0;entryDy=0;endArrow=block;endFill=1;startSize=3;endSize=3;" edge="1" parent="349" source="249" target="250">
                    <mxGeometry relative="1" as="geometry"/>
                </mxCell>
                <mxCell id="251" value="H, 0" style="ellipse;whiteSpace=wrap;html=1;" vertex="1" parent="349">
                    <mxGeometry x="400" y="40" width="40" height="40" as="geometry"/>
                </mxCell>
                <mxCell id="262" style="edgeStyle=orthogonalEdgeStyle;rounded=0;html=1;exitX=1;exitY=0.5;exitDx=0;exitDy=0;entryX=0;entryY=0.5;entryDx=0;entryDy=0;endArrow=block;endFill=1;startSize=3;endSize=3;" edge="1" parent="349" source="250" target="251">
                    <mxGeometry relative="1" as="geometry"/>
                </mxCell>
                <mxCell id="435" value="" style="endArrow=block;html=1;rounded=0;fontSize=13;fontColor=#FF0000;startSize=3;endSize=3;endFill=1;" edge="1" parent="1">
                    <mxGeometry width="50" height="50" relative="1" as="geometry">
                        <mxPoint x="335" y="210" as="sourcePoint"/>
                        <mxPoint x="335" y="250" as="targetPoint"/>
                    </mxGeometry>
                </mxCell>
                <mxCell id="263" value="A" style="rounded=0;whiteSpace=wrap;html=1;fontStyle=0;fontSize=13;fillColor=none;strokeColor=none;" vertex="1" parent="1">
                    <mxGeometry x="200" y="290" width="30" height="30" as="geometry"/>
                </mxCell>
                <mxCell id="264" value="B" style="rounded=0;whiteSpace=wrap;html=1;fontStyle=0;fontSize=13;fillColor=none;strokeColor=none;" vertex="1" parent="1">
                    <mxGeometry x="200" y="320" width="30" height="30" as="geometry"/>
                </mxCell>
                <mxCell id="265" value="C" style="rounded=0;whiteSpace=wrap;html=1;fontStyle=0;fontSize=13;fillColor=none;strokeColor=none;" vertex="1" parent="1">
                    <mxGeometry x="200" y="350" width="30" height="30" as="geometry"/>
                </mxCell>
                <mxCell id="266" value="D" style="rounded=0;whiteSpace=wrap;html=1;fontStyle=0;fontSize=13;fillColor=none;strokeColor=none;" vertex="1" parent="1">
                    <mxGeometry x="200" y="380" width="30" height="30" as="geometry"/>
                </mxCell>
                <mxCell id="267" value="E" style="rounded=0;whiteSpace=wrap;html=1;fontStyle=0;fontSize=13;fillColor=none;strokeColor=none;" vertex="1" parent="1">
                    <mxGeometry x="200" y="410" width="30" height="30" as="geometry"/>
                </mxCell>
                <mxCell id="268" value="F" style="rounded=0;whiteSpace=wrap;html=1;fontStyle=0;fontSize=13;fillColor=none;strokeColor=none;" vertex="1" parent="1">
                    <mxGeometry x="200" y="440" width="30" height="30" as="geometry"/>
                </mxCell>
                <mxCell id="269" value="G" style="rounded=0;whiteSpace=wrap;html=1;fontStyle=0;fontSize=13;fillColor=none;strokeColor=none;" vertex="1" parent="1">
                    <mxGeometry x="200" y="470" width="30" height="30" as="geometry"/>
                </mxCell>
                <mxCell id="270" value="H" style="rounded=0;whiteSpace=wrap;html=1;fontStyle=0;fontSize=13;fillColor=none;strokeColor=none;" vertex="1" parent="1">
                    <mxGeometry x="200" y="500" width="30" height="30" as="geometry"/>
                </mxCell>
                <mxCell id="271" value="A" style="rounded=0;whiteSpace=wrap;html=1;fontStyle=0;fontSize=13;fillColor=none;strokeColor=none;" vertex="1" parent="1">
                    <mxGeometry x="230" y="260" width="30" height="30" as="geometry"/>
                </mxCell>
                <mxCell id="272" value="B" style="rounded=0;whiteSpace=wrap;html=1;fontStyle=0;fontSize=13;fillColor=none;strokeColor=none;" vertex="1" parent="1">
                    <mxGeometry x="260" y="260" width="30" height="30" as="geometry"/>
                </mxCell>
                <mxCell id="273" value="C" style="rounded=0;whiteSpace=wrap;html=1;fontStyle=0;fontSize=13;fillColor=none;strokeColor=none;" vertex="1" parent="1">
                    <mxGeometry x="290" y="260" width="30" height="30" as="geometry"/>
                </mxCell>
                <mxCell id="274" value="D" style="rounded=0;whiteSpace=wrap;html=1;fontStyle=0;fontSize=13;fillColor=none;strokeColor=none;" vertex="1" parent="1">
                    <mxGeometry x="320" y="260" width="30" height="30" as="geometry"/>
                </mxCell>
                <mxCell id="275" value="E" style="rounded=0;whiteSpace=wrap;html=1;fontStyle=0;fontSize=13;fillColor=none;strokeColor=none;" vertex="1" parent="1">
                    <mxGeometry x="350" y="260" width="30" height="30" as="geometry"/>
                </mxCell>
                <mxCell id="276" value="F" style="rounded=0;whiteSpace=wrap;html=1;fontStyle=0;fontSize=13;fillColor=none;strokeColor=none;" vertex="1" parent="1">
                    <mxGeometry x="380" y="260" width="30" height="30" as="geometry"/>
                </mxCell>
                <mxCell id="277" value="G" style="rounded=0;whiteSpace=wrap;html=1;fontStyle=0;fontSize=13;fillColor=none;strokeColor=none;" vertex="1" parent="1">
                    <mxGeometry x="410" y="260" width="30" height="30" as="geometry"/>
                </mxCell>
                <mxCell id="278" value="H" style="rounded=0;whiteSpace=wrap;html=1;fontStyle=0;fontSize=13;fillColor=none;strokeColor=none;" vertex="1" parent="1">
                    <mxGeometry x="440" y="260" width="30" height="30" as="geometry"/>
                </mxCell>
                <mxCell id="279" value="0" style="rounded=0;whiteSpace=wrap;html=1;fontStyle=0;fontSize=13;fillColor=none;strokeColor=none;" vertex="1" parent="1">
                    <mxGeometry x="230" y="290" width="30" height="30" as="geometry"/>
                </mxCell>
                <mxCell id="280" value="X" style="rounded=0;whiteSpace=wrap;html=1;fontStyle=0;fontSize=13;fillColor=none;strokeColor=none;" vertex="1" parent="1">
                    <mxGeometry x="230" y="320" width="30" height="30" as="geometry"/>
                </mxCell>
                <mxCell id="281" value="X" style="rounded=0;whiteSpace=wrap;html=1;fontStyle=0;fontSize=13;fillColor=none;strokeColor=none;" vertex="1" parent="1">
                    <mxGeometry x="230" y="350" width="30" height="30" as="geometry"/>
                </mxCell>
                <mxCell id="282" value="" style="rounded=0;whiteSpace=wrap;html=1;fontStyle=0;fontSize=13;fillColor=none;strokeColor=none;" vertex="1" parent="1">
                    <mxGeometry x="230" y="380" width="30" height="30" as="geometry"/>
                </mxCell>
                <mxCell id="283" value="" style="rounded=0;whiteSpace=wrap;html=1;fontStyle=0;fontSize=13;fillColor=none;strokeColor=none;" vertex="1" parent="1">
                    <mxGeometry x="230" y="410" width="30" height="30" as="geometry"/>
                </mxCell>
                <mxCell id="284" value="" style="rounded=0;whiteSpace=wrap;html=1;fontStyle=0;fontSize=13;fillColor=none;strokeColor=none;" vertex="1" parent="1">
                    <mxGeometry x="230" y="440" width="30" height="30" as="geometry"/>
                </mxCell>
                <mxCell id="285" value="" style="rounded=0;whiteSpace=wrap;html=1;fontStyle=0;fontSize=13;fillColor=none;strokeColor=none;" vertex="1" parent="1">
                    <mxGeometry x="230" y="470" width="30" height="30" as="geometry"/>
                </mxCell>
                <mxCell id="286" value="" style="rounded=0;whiteSpace=wrap;html=1;fontStyle=0;fontSize=13;fillColor=none;strokeColor=none;" vertex="1" parent="1">
                    <mxGeometry x="230" y="500" width="30" height="30" as="geometry"/>
                </mxCell>
                <mxCell id="287" value="" style="rounded=0;whiteSpace=wrap;html=1;fontStyle=0;fontSize=13;fillColor=none;strokeColor=none;" vertex="1" parent="1">
                    <mxGeometry x="260" y="290" width="30" height="30" as="geometry"/>
                </mxCell>
                <mxCell id="288" value="10" style="rounded=0;whiteSpace=wrap;html=1;fontStyle=0;fontSize=13;fillColor=none;strokeColor=none;" vertex="1" parent="1">
                    <mxGeometry x="260" y="320" width="30" height="30" as="geometry"/>
                </mxCell>
                <mxCell id="289" value="" style="rounded=0;whiteSpace=wrap;html=1;fontStyle=0;fontSize=13;fillColor=none;strokeColor=none;" vertex="1" parent="1">
                    <mxGeometry x="260" y="350" width="30" height="30" as="geometry"/>
                </mxCell>
                <mxCell id="290" value="X" style="rounded=0;whiteSpace=wrap;html=1;fontStyle=0;fontSize=13;fillColor=none;strokeColor=none;" vertex="1" parent="1">
                    <mxGeometry x="260" y="380" width="30" height="30" as="geometry"/>
                </mxCell>
                <mxCell id="291" value="X" style="rounded=0;whiteSpace=wrap;html=1;fontStyle=0;fontSize=13;fillColor=none;strokeColor=none;" vertex="1" parent="1">
                    <mxGeometry x="260" y="410" width="30" height="30" as="geometry"/>
                </mxCell>
                <mxCell id="292" value="" style="rounded=0;whiteSpace=wrap;html=1;fontStyle=0;fontSize=13;fillColor=none;strokeColor=none;" vertex="1" parent="1">
                    <mxGeometry x="260" y="440" width="30" height="30" as="geometry"/>
                </mxCell>
                <mxCell id="293" value="" style="rounded=0;whiteSpace=wrap;html=1;fontStyle=0;fontSize=13;fillColor=none;strokeColor=none;" vertex="1" parent="1">
                    <mxGeometry x="260" y="470" width="30" height="30" as="geometry"/>
                </mxCell>
                <mxCell id="294" value="" style="rounded=0;whiteSpace=wrap;html=1;fontStyle=0;fontSize=13;fillColor=none;strokeColor=none;" vertex="1" parent="1">
                    <mxGeometry x="260" y="500" width="30" height="30" as="geometry"/>
                </mxCell>
                <mxCell id="295" value="" style="rounded=0;whiteSpace=wrap;html=1;fontStyle=0;fontSize=13;fillColor=none;strokeColor=none;" vertex="1" parent="1">
                    <mxGeometry x="290" y="290" width="30" height="30" as="geometry"/>
                </mxCell>
                <mxCell id="296" value="" style="rounded=0;whiteSpace=wrap;html=1;fontStyle=0;fontSize=13;fillColor=none;strokeColor=none;" vertex="1" parent="1">
                    <mxGeometry x="290" y="320" width="30" height="30" as="geometry"/>
                </mxCell>
                <mxCell id="297" value="20" style="rounded=0;whiteSpace=wrap;html=1;fontStyle=0;fontSize=13;fillColor=none;strokeColor=none;" vertex="1" parent="1">
                    <mxGeometry x="290" y="350" width="30" height="30" as="geometry"/>
                </mxCell>
                <mxCell id="298" value="X" style="rounded=0;whiteSpace=wrap;html=1;fontStyle=0;fontSize=13;fillColor=none;strokeColor=none;" vertex="1" parent="1">
                    <mxGeometry x="290" y="380" width="30" height="30" as="geometry"/>
                </mxCell>
                <mxCell id="299" value="X" style="rounded=0;whiteSpace=wrap;html=1;fontStyle=0;fontSize=13;fillColor=none;strokeColor=none;" vertex="1" parent="1">
                    <mxGeometry x="290" y="410" width="30" height="30" as="geometry"/>
                </mxCell>
                <mxCell id="300" value="" style="rounded=0;whiteSpace=wrap;html=1;fontStyle=0;fontSize=13;fillColor=none;strokeColor=none;" vertex="1" parent="1">
                    <mxGeometry x="290" y="440" width="30" height="30" as="geometry"/>
                </mxCell>
                <mxCell id="301" value="" style="rounded=0;whiteSpace=wrap;html=1;fontStyle=0;fontSize=13;fillColor=none;strokeColor=none;" vertex="1" parent="1">
                    <mxGeometry x="290" y="470" width="30" height="30" as="geometry"/>
                </mxCell>
                <mxCell id="302" value="" style="rounded=0;whiteSpace=wrap;html=1;fontStyle=0;fontSize=13;fillColor=none;strokeColor=none;" vertex="1" parent="1">
                    <mxGeometry x="290" y="500" width="30" height="30" as="geometry"/>
                </mxCell>
                <mxCell id="303" value="" style="rounded=0;whiteSpace=wrap;html=1;fontStyle=0;fontSize=13;fillColor=none;strokeColor=none;" vertex="1" parent="1">
                    <mxGeometry x="320" y="290" width="30" height="30" as="geometry"/>
                </mxCell>
                <mxCell id="304" value="" style="rounded=0;whiteSpace=wrap;html=1;fontStyle=0;fontSize=13;fillColor=none;strokeColor=none;" vertex="1" parent="1">
                    <mxGeometry x="320" y="320" width="30" height="30" as="geometry"/>
                </mxCell>
                <mxCell id="305" value="" style="rounded=0;whiteSpace=wrap;html=1;fontStyle=0;fontSize=13;fillColor=none;strokeColor=none;" vertex="1" parent="1">
                    <mxGeometry x="320" y="350" width="30" height="30" as="geometry"/>
                </mxCell>
                <mxCell id="306" value="30" style="rounded=0;whiteSpace=wrap;html=1;fontStyle=0;fontSize=13;fillColor=none;strokeColor=none;" vertex="1" parent="1">
                    <mxGeometry x="320" y="380" width="30" height="30" as="geometry"/>
                </mxCell>
                <mxCell id="307" value="" style="rounded=0;whiteSpace=wrap;html=1;fontStyle=0;fontSize=13;fillColor=none;strokeColor=none;" vertex="1" parent="1">
                    <mxGeometry x="320" y="410" width="30" height="30" as="geometry"/>
                </mxCell>
                <mxCell id="308" value="" style="rounded=0;whiteSpace=wrap;html=1;fontStyle=0;fontSize=13;fillColor=none;strokeColor=none;" vertex="1" parent="1">
                    <mxGeometry x="320" y="440" width="30" height="30" as="geometry"/>
                </mxCell>
                <mxCell id="309" value="X" style="rounded=0;whiteSpace=wrap;html=1;fontStyle=0;fontSize=13;fillColor=none;strokeColor=none;" vertex="1" parent="1">
                    <mxGeometry x="320" y="470" width="30" height="30" as="geometry"/>
                </mxCell>
                <mxCell id="310" value="" style="rounded=0;whiteSpace=wrap;html=1;fontStyle=0;fontSize=13;fillColor=none;strokeColor=none;" vertex="1" parent="1">
                    <mxGeometry x="320" y="500" width="30" height="30" as="geometry"/>
                </mxCell>
                <mxCell id="311" value="" style="rounded=0;whiteSpace=wrap;html=1;fontStyle=0;fontSize=13;fillColor=none;strokeColor=none;" vertex="1" parent="1">
                    <mxGeometry x="350" y="290" width="30" height="30" as="geometry"/>
                </mxCell>
                <mxCell id="312" value="" style="rounded=0;whiteSpace=wrap;html=1;fontStyle=0;fontSize=13;fillColor=none;strokeColor=none;" vertex="1" parent="1">
                    <mxGeometry x="350" y="320" width="30" height="30" as="geometry"/>
                </mxCell>
                <mxCell id="313" value="" style="rounded=0;whiteSpace=wrap;html=1;fontStyle=0;fontSize=13;fillColor=none;strokeColor=none;" vertex="1" parent="1">
                    <mxGeometry x="350" y="350" width="30" height="30" as="geometry"/>
                </mxCell>
                <mxCell id="314" value="" style="rounded=0;whiteSpace=wrap;html=1;fontStyle=0;fontSize=13;fillColor=none;strokeColor=none;" vertex="1" parent="1">
                    <mxGeometry x="350" y="380" width="30" height="30" as="geometry"/>
                </mxCell>
                <mxCell id="315" value="20" style="rounded=0;whiteSpace=wrap;html=1;fontStyle=0;fontSize=13;fillColor=none;strokeColor=none;" vertex="1" parent="1">
                    <mxGeometry x="350" y="410" width="30" height="30" as="geometry"/>
                </mxCell>
                <mxCell id="316" value="X" style="rounded=0;whiteSpace=wrap;html=1;fontStyle=0;fontSize=13;fillColor=none;strokeColor=none;" vertex="1" parent="1">
                    <mxGeometry x="350" y="440" width="30" height="30" as="geometry"/>
                </mxCell>
                <mxCell id="317" value="" style="rounded=0;whiteSpace=wrap;html=1;fontStyle=0;fontSize=13;fillColor=none;strokeColor=none;" vertex="1" parent="1">
                    <mxGeometry x="350" y="470" width="30" height="30" as="geometry"/>
                </mxCell>
                <mxCell id="318" value="" style="rounded=0;whiteSpace=wrap;html=1;fontStyle=0;fontSize=13;fillColor=none;strokeColor=none;" vertex="1" parent="1">
                    <mxGeometry x="350" y="500" width="30" height="30" as="geometry"/>
                </mxCell>
                <mxCell id="319" value="" style="rounded=0;whiteSpace=wrap;html=1;fontStyle=0;fontSize=13;fillColor=none;strokeColor=none;" vertex="1" parent="1">
                    <mxGeometry x="380" y="290" width="30" height="30" as="geometry"/>
                </mxCell>
                <mxCell id="320" value="" style="rounded=0;whiteSpace=wrap;html=1;fontStyle=0;fontSize=13;fillColor=none;strokeColor=none;" vertex="1" parent="1">
                    <mxGeometry x="380" y="320" width="30" height="30" as="geometry"/>
                </mxCell>
                <mxCell id="321" value="" style="rounded=0;whiteSpace=wrap;html=1;fontStyle=0;fontSize=13;fillColor=none;strokeColor=none;" vertex="1" parent="1">
                    <mxGeometry x="380" y="350" width="30" height="30" as="geometry"/>
                </mxCell>
                <mxCell id="322" value="" style="rounded=0;whiteSpace=wrap;html=1;fontStyle=0;fontSize=13;fillColor=none;strokeColor=none;" vertex="1" parent="1">
                    <mxGeometry x="380" y="380" width="30" height="30" as="geometry"/>
                </mxCell>
                <mxCell id="323" value="" style="rounded=0;whiteSpace=wrap;html=1;fontStyle=0;fontSize=13;fillColor=none;strokeColor=none;" vertex="1" parent="1">
                    <mxGeometry x="380" y="410" width="30" height="30" as="geometry"/>
                </mxCell>
                <mxCell id="324" value="40" style="rounded=0;whiteSpace=wrap;html=1;fontStyle=0;fontSize=13;fillColor=none;strokeColor=none;" vertex="1" parent="1">
                    <mxGeometry x="380" y="440" width="30" height="30" as="geometry"/>
                </mxCell>
                <mxCell id="325" value="X" style="rounded=0;whiteSpace=wrap;html=1;fontStyle=0;fontSize=13;fillColor=none;strokeColor=none;" vertex="1" parent="1">
                    <mxGeometry x="380" y="470" width="30" height="30" as="geometry"/>
                </mxCell>
                <mxCell id="326" value="" style="rounded=0;whiteSpace=wrap;html=1;fontStyle=0;fontSize=13;fillColor=none;strokeColor=none;" vertex="1" parent="1">
                    <mxGeometry x="380" y="500" width="30" height="30" as="geometry"/>
                </mxCell>
                <mxCell id="327" value="" style="rounded=0;whiteSpace=wrap;html=1;fontStyle=0;fontSize=13;fillColor=none;strokeColor=none;" vertex="1" parent="1">
                    <mxGeometry x="410" y="290" width="30" height="30" as="geometry"/>
                </mxCell>
                <mxCell id="328" value="" style="rounded=0;whiteSpace=wrap;html=1;fontStyle=0;fontSize=13;fillColor=none;strokeColor=none;" vertex="1" parent="1">
                    <mxGeometry x="410" y="320" width="30" height="30" as="geometry"/>
                </mxCell>
                <mxCell id="329" value="&lt;font style=&quot;font-size: 13px;&quot;&gt;X&lt;/font&gt;" style="rounded=0;whiteSpace=wrap;html=1;fontStyle=0;fontSize=13;fillColor=none;strokeColor=none;fontColor=#FF0000;" vertex="1" parent="1">
                    <mxGeometry x="410" y="350" width="30" height="30" as="geometry"/>
                </mxCell>
                <mxCell id="330" value="" style="rounded=0;whiteSpace=wrap;html=1;fontStyle=0;fontSize=13;fillColor=none;strokeColor=none;" vertex="1" parent="1">
                    <mxGeometry x="410" y="380" width="30" height="30" as="geometry"/>
                </mxCell>
                <mxCell id="331" value="" style="rounded=0;whiteSpace=wrap;html=1;fontStyle=0;fontSize=13;fillColor=none;strokeColor=none;" vertex="1" parent="1">
                    <mxGeometry x="410" y="410" width="30" height="30" as="geometry"/>
                </mxCell>
                <mxCell id="332" value="" style="rounded=0;whiteSpace=wrap;html=1;fontStyle=0;fontSize=13;fillColor=none;strokeColor=none;" vertex="1" parent="1">
                    <mxGeometry x="410" y="440" width="30" height="30" as="geometry"/>
                </mxCell>
                <mxCell id="333" value="20" style="rounded=0;whiteSpace=wrap;html=1;fontStyle=0;fontSize=13;fillColor=none;strokeColor=none;" vertex="1" parent="1">
                    <mxGeometry x="410" y="470" width="30" height="30" as="geometry"/>
                </mxCell>
                <mxCell id="334" value="X" style="rounded=0;whiteSpace=wrap;html=1;fontStyle=0;fontSize=13;fillColor=none;strokeColor=none;" vertex="1" parent="1">
                    <mxGeometry x="410" y="500" width="30" height="30" as="geometry"/>
                </mxCell>
                <mxCell id="335" value="" style="rounded=0;whiteSpace=wrap;html=1;fontStyle=0;fontSize=13;fillColor=none;strokeColor=none;" vertex="1" parent="1">
                    <mxGeometry x="440" y="290" width="30" height="30" as="geometry"/>
                </mxCell>
                <mxCell id="336" value="" style="rounded=0;whiteSpace=wrap;html=1;fontStyle=0;fontSize=13;fillColor=none;strokeColor=none;" vertex="1" parent="1">
                    <mxGeometry x="440" y="320" width="30" height="30" as="geometry"/>
                </mxCell>
                <mxCell id="337" value="" style="rounded=0;whiteSpace=wrap;html=1;fontStyle=0;fontSize=13;fillColor=none;strokeColor=none;" vertex="1" parent="1">
                    <mxGeometry x="440" y="350" width="30" height="30" as="geometry"/>
                </mxCell>
                <mxCell id="338" value="" style="rounded=0;whiteSpace=wrap;html=1;fontStyle=0;fontSize=13;fillColor=none;strokeColor=none;" vertex="1" parent="1">
                    <mxGeometry x="440" y="380" width="30" height="30" as="geometry"/>
                </mxCell>
                <mxCell id="339" value="" style="rounded=0;whiteSpace=wrap;html=1;fontStyle=0;fontSize=13;fillColor=none;strokeColor=none;" vertex="1" parent="1">
                    <mxGeometry x="440" y="410" width="30" height="30" as="geometry"/>
                </mxCell>
                <mxCell id="340" value="" style="rounded=0;whiteSpace=wrap;html=1;fontStyle=0;fontSize=13;fillColor=none;strokeColor=none;" vertex="1" parent="1">
                    <mxGeometry x="440" y="440" width="30" height="30" as="geometry"/>
                </mxCell>
                <mxCell id="341" value="" style="rounded=0;whiteSpace=wrap;html=1;fontStyle=0;fontSize=13;fillColor=none;strokeColor=none;" vertex="1" parent="1">
                    <mxGeometry x="440" y="470" width="30" height="30" as="geometry"/>
                </mxCell>
                <mxCell id="342" value="0" style="rounded=0;whiteSpace=wrap;html=1;fontStyle=0;fontSize=13;fillColor=none;strokeColor=none;" vertex="1" parent="1">
                    <mxGeometry x="440" y="500" width="30" height="30" as="geometry"/>
                </mxCell>
                <mxCell id="346" value="" style="endArrow=none;html=1;rounded=0;fontSize=13;fontColor=#FF0000;startSize=3;endSize=3;entryX=1;entryY=1;entryDx=0;entryDy=0;exitX=0;exitY=0;exitDx=0;exitDy=0;" edge="1" parent="1" source="263" target="278">
                    <mxGeometry width="50" height="50" relative="1" as="geometry">
                        <mxPoint x="355" y="400" as="sourcePoint"/>
                        <mxPoint x="405" y="350" as="targetPoint"/>
                    </mxGeometry>
                </mxCell>
                <mxCell id="347" value="" style="endArrow=none;html=1;rounded=0;fontSize=13;fontColor=#FF0000;startSize=3;endSize=3;exitX=1;exitY=1;exitDx=0;exitDy=0;entryX=0;entryY=0;entryDx=0;entryDy=0;" edge="1" parent="1" source="270" target="271">
                    <mxGeometry width="50" height="50" relative="1" as="geometry">
                        <mxPoint x="355" y="400" as="sourcePoint"/>
                        <mxPoint x="405" y="350" as="targetPoint"/>
                    </mxGeometry>
                </mxCell>
            </root>
        </mxGraphModel>
    </diagram>
</mxfile>